<?xml version="1.0" encoding="utf-8"?>
<!-- Generator: Adobe Illustrator 16.0.0, SVG Export Plug-In . SVG Version: 6.00 Build 0)  -->
<!DOCTYPE svg PUBLIC "-//W3C//DTD SVG 1.1//EN" "http://www.w3.org/Graphics/SVG/1.1/DTD/svg11.dtd">
<svg version="1.1" id="Calque_1" xmlns="http://www.w3.org/2000/svg" xmlns:xlink="http://www.w3.org/1999/xlink" x="0px" y="0px"
	 width="90px" height="292.7px" viewBox="0 0 90 292.7" enable-background="new 0 0 90 292.7" xml:space="preserve">
<g>
	<path fill="#2E424D" d="M45.521,205.354c12.835,0,24.894,6.285,32.267,16.822c0.704,0.998,1.374,2.051,1.987,3.123
		c3.351,5.895,5.123,12.613,5.123,19.432c0,5.164-0.98,10.172-2.916,14.892c-2.526,6.189-6.634,11.676-11.886,15.867
		c-6.934,5.553-15.66,8.609-24.575,8.609c-9.054,0-17.56-2.988-24.608-8.641c-5.242-4.193-9.344-9.682-11.865-15.881
		c-1.927-4.711-2.904-9.706-2.904-14.847c0-6.807,1.766-13.514,5.111-19.403c0.568-1.008,1.221-2.039,1.938-3.063l0.107-0.152
		l0.037-0.067C20.719,211.59,32.736,205.354,45.521,205.354 M45.521,201.251c-14.75,0-27.79,7.351-35.65,18.591l-0.04,0.069
		c-0.77,1.101-1.49,2.229-2.15,3.399c-3.59,6.32-5.64,13.631-5.64,21.42c0,5.811,1.14,11.341,3.21,16.401
		c2.811,6.91,7.36,12.939,13.1,17.529c7.44,5.971,16.891,9.539,27.171,9.539c10.26,0,19.71-3.559,27.14-9.51
		c5.75-4.59,10.3-10.609,13.12-17.52c2.08-5.069,3.22-10.62,3.22-16.44c0-7.81-2.06-15.129-5.66-21.459
		c-0.68-1.19-1.409-2.34-2.199-3.461C73.29,208.592,60.26,201.251,45.521,201.251"/>
	<line fill="none" stroke="#2E424D" stroke-width="1.231" stroke-miterlimit="10" x1="45.52" y1="202.508" x2="45.52" y2="6.642"/>
	<path fill="none" stroke="#2E424D" stroke-width="1.231" stroke-miterlimit="10" d="M45.52,201.737c0,0-4.741-9.75-13.475-9.762
		C23.43,191.964,24.485,209.321,45.52,201.737z"/>
	<path fill="none" stroke="#2E424D" stroke-width="1.231" stroke-miterlimit="10" d="M45.52,201.737c0,0,4.74-9.75,13.474-9.762
		C67.609,191.964,66.553,209.321,45.52,201.737z"/>
	<path fill="#2E424D" d="M49.003,201.418c0,1.965-1.592,3.557-3.556,3.557c-1.965,0-3.557-1.592-3.557-3.557
		c0-1.963,1.592-3.555,3.557-3.555C47.411,197.864,49.003,199.456,49.003,201.418"/>
	<polyline fill="none" stroke="#2E424D" stroke-width="4" stroke-miterlimit="10" points="4.055,239.55 17.859,253.55 
		31.669,239.55 45.482,253.55 59.293,239.55 73.112,253.55 86.931,239.55 	"/>
	<path fill="#2E424D" d="M83.341,223.272l-10.23,10.369l-13.819-14l-13.811,14l-13.811-14l-13.81,14L7.68,223.311l2.15-3.399
		l0.041-0.069l7.989,8.1l13.81-14l13.811,14l13.811-14l13.819,14l8.03-8.131C81.931,220.932,82.66,222.082,83.341,223.272"/>
	<path fill="#2E424D" d="M85.78,261.171c-2.82,6.91-7.37,12.93-13.12,17.52l-13.369-13.539l-13.811,14l-13.811-14l-13.319,13.51
		c-5.74-4.59-10.29-10.619-13.101-17.529l0.23-0.23l12.38,12.561l13.81-14l13.811,14l13.811-14l13.819,14l12.4-12.561L85.78,261.171
		z"/>
</g>
<g>
</g>
<g>
</g>
<g>
</g>
<g>
</g>
<g>
</g>
<g>
</g>
</svg>
