<?xml version="1.0" encoding="utf-8"?>
<!-- Generator: Adobe Illustrator 16.0.0, SVG Export Plug-In . SVG Version: 6.00 Build 0)  -->
<!DOCTYPE svg PUBLIC "-//W3C//DTD SVG 1.1//EN" "http://www.w3.org/Graphics/SVG/1.1/DTD/svg11.dtd">
<svg version="1.1" id="Calque_1" xmlns="http://www.w3.org/2000/svg" xmlns:xlink="http://www.w3.org/1999/xlink" x="0px" y="0px"
	 width="274px" height="38px" viewBox="0 0 274 38" enable-background="new 0 0 274 38" xml:space="preserve">
<g>
	<path fill="#2E414C" d="M8.155,7.75h2.239v9.017h12.729V7.75h2.146v21.898h-2.146V18.914H10.394v10.734H8.155V7.75z"/>
	<path fill="#2E414C" d="M37.573,7.75h2.423l9.845,21.898h-2.423l-3.926-8.71h-9.416l-3.926,8.71h-2.423L37.573,7.75z
		 M38.799,10.449l-3.772,8.342h7.514L38.799,10.449z"/>
	<path fill="#2E414C" d="M59.476,7.75c4.171,0,6.993,2.729,6.993,6.809s-2.791,6.809-6.993,6.809h-4.938v8.281h-2.239V7.75H59.476z
		 M59.476,19.221c2.791,0,4.662-1.871,4.662-4.662s-1.84-4.662-4.662-4.662h-4.938v9.324H59.476z"/>
	<path fill="#2E414C" d="M77.023,7.75c4.171,0,6.993,2.729,6.993,6.809s-2.791,6.809-6.993,6.809h-4.938v8.281h-2.239V7.75H77.023z
		 M77.023,19.221c2.791,0,4.662-1.871,4.662-4.662s-1.84-4.662-4.662-4.662h-4.938v9.324H77.023z"/>
	<path fill="#2E414C" d="M92.516,23.238L84.94,7.75h2.423l6.379,13.035l6.379-13.035h2.423L91.811,29.648h-2.423L92.516,23.238z"/>
	<path fill="#2E414C" d="M114.206,7.75h2.699l13.71,18.831V7.75h2.239v21.898h-2.699l-13.71-18.831v18.831h-2.239V7.75z"/>
	<path fill="#2E414C" d="M137.766,7.75h12.698v2.146h-10.459v6.135h9.846v2.146h-9.846v9.324h10.459v2.146h-12.698V7.75z"/>
	<path fill="#2E414C" d="M151.848,7.75h2.238l6.227,18.556l6.195-18.556h2.239l6.226,18.556l6.195-18.556h2.239l-7.33,21.898h-2.239
		l-6.195-18.556l-6.226,18.556h-2.239L151.848,7.75z"/>
	<path fill="#2E414C" d="M199.426,23.238L191.851,7.75h2.423l6.38,13.035l6.379-13.035h2.423l-10.734,21.898h-2.423L199.426,23.238z
		"/>
	<path fill="#2E414C" d="M211.912,7.75h12.698v2.146h-10.459v6.135h9.846v2.146h-9.846v9.324h10.459v2.146h-12.698V7.75z"/>
	<path fill="#2E414C" d="M236.605,7.75h2.424l9.845,21.898h-2.423l-3.926-8.71h-9.416l-3.926,8.71h-2.423L236.605,7.75z
		 M237.833,10.449l-3.772,8.342h7.514L237.833,10.449z"/>
	<path fill="#2E414C" d="M251.334,7.75h7.177c4.171,0,6.992,2.729,6.992,6.809c0,3.404-1.932,5.858-5.029,6.594l6.686,8.496h-2.975
		l-6.533-8.281h-4.079v8.281h-2.238V7.75z M258.511,19.221c2.791,0,4.661-1.871,4.661-4.662s-1.84-4.662-4.661-4.662h-4.938v9.324
		H258.511z"/>
</g>
</svg>
