<?xml version="1.0" standalone="no"?><!-- Generator: Gravit.io --><svg xmlns="http://www.w3.org/2000/svg" xmlns:xlink="http://www.w3.org/1999/xlink" style="isolation:isolate" viewBox="0 0 841.89 595.276" width="841.89" height="595.276"><defs><clipPath id="_clipPath_okT8mnErR3oeUPjlBZs6xJ0Wako001Xp"><rect width="841.89" height="595.276"/></clipPath></defs><g clip-path="url(#_clipPath_okT8mnErR3oeUPjlBZs6xJ0Wako001Xp)"><path d=" M 174.556 538.415 C 178.004 540.273 179.29 544.567 177.432 548.013 C 175.576 551.456 171.282 552.746 167.834 550.887 C 164.387 549.029 163.103 544.733 164.959 541.29 C 166.817 537.843 171.11 536.557 174.556 538.415 Z " fill="rgb(145,157,156)"/><path d=" M 664.482 171.165 C 663.698 172.522 661.966 172.986 660.609 172.203 C 659.254 171.42 658.789 169.687 659.572 168.33 C 660.356 166.973 662.089 166.51 663.444 167.293 C 664.801 168.076 665.265 169.808 664.482 171.165 Z " fill="rgb(145,157,156)"/><g><path d=" M 248.284 181.127 C 248.023 183.286 246.067 184.821 243.909 184.561 C 241.753 184.302 240.215 182.344 240.475 180.186 C 240.735 178.028 242.695 176.493 244.85 176.752 C 247.008 177.012 248.544 178.969 248.284 181.127 Z " fill="rgb(122,130,136)"/></g><g><path d=" M 134.903 328.323 L 140.751 332.276 L 147.325 329.699 L 145.372 336.483 L 149.854 341.936 L 142.799 342.177 L 138.998 348.124 L 136.588 341.489 L 129.757 339.711 L 135.325 335.369 L 134.903 328.323 Z " fill="rgb(146,158,157)"/></g><g><path d=" M 294.335 381.047 L 299.662 378.26 L 300.387 372.291 L 304.684 376.496 L 310.584 375.339 L 307.913 380.726 L 310.836 385.979 L 304.887 385.105 L 300.794 389.507 L 299.789 383.578 L 294.335 381.047 Z " fill="rgb(146,158,157)"/></g><g><path d=" M 462.158 97.333 L 462.228 93.239 L 465.642 90.977 L 461.768 89.644 L 460.673 85.699 L 458.209 88.969 L 454.12 88.793 L 456.467 92.146 L 455.034 95.983 L 458.95 94.786 L 462.158 97.333 Z  M 462.797 91.339 L 460.972 92.55 L 460.933 94.741 L 459.218 93.375 L 457.124 94.017 L 457.89 91.966 L 456.633 90.17 L 458.821 90.264 L 460.14 88.516 L 460.726 90.626 L 462.797 91.339 Z " fill="rgb(122,130,136)"/></g><g><path d=" M 590.716 364.563 L 590.85 356.788 L 597.333 352.493 L 589.977 349.961 L 587.897 342.47 L 583.219 348.679 L 575.453 348.344 L 579.91 354.712 L 577.19 361.998 L 584.626 359.724 L 590.716 364.563 Z  M 591.93 353.18 L 588.464 355.479 L 588.391 359.64 L 585.134 357.046 L 581.157 358.265 L 582.611 354.371 L 580.225 350.961 L 584.381 351.139 L 586.885 347.818 L 587.998 351.826 L 591.93 353.18 Z " fill="rgb(122,130,136)"/></g><g><path d=" M 121.086 80.07 L 118.36 82.899 L 114.482 82.257 L 116.33 85.725 L 114.521 89.214 L 118.391 88.527 L 121.15 91.328 L 121.692 87.434 L 125.209 85.675 L 121.674 83.955 L 121.086 80.07 Z " fill="rgb(122,130,136)"/></g><path d=" M 161.398 412.417 C 161.374 410.85 162.623 409.563 164.189 409.539 C 165.754 409.515 167.043 410.763 167.067 412.33 C 167.091 413.897 165.841 415.184 164.276 415.208 C 162.71 415.232 161.422 413.984 161.398 412.417 Z " fill="rgb(145,157,156)"/><g><path d=" M 502.199 181.93 C 501.083 180.064 501.69 177.652 503.555 176.536 C 505.419 175.422 507.833 176.028 508.949 177.894 C 510.064 179.759 509.455 182.173 507.592 183.287 C 505.727 184.402 503.314 183.795 502.199 181.93 Z " fill="rgb(122,130,136)"/></g><g><path d=" M 599.645 44.503 L 592.597 44.112 L 588.277 49.697 L 586.472 42.872 L 579.826 40.492 L 585.757 36.664 L 585.967 29.61 L 591.441 34.067 L 598.216 32.088 L 595.666 38.672 L 599.645 44.503 Z " fill="rgb(146,158,157)"/></g><g><path d=" M 204.508 442.923 L 208.601 442.812 L 211.013 446.122 L 212.172 442.192 L 216.065 440.922 L 212.688 438.607 L 212.682 434.513 L 209.437 437.007 L 205.54 435.747 L 206.91 439.606 L 204.508 442.923 Z  M 210.525 443.295 L 209.234 441.526 L 207.043 441.585 L 208.331 439.811 L 207.597 437.747 L 209.68 438.421 L 211.417 437.085 L 211.421 439.276 L 213.227 440.515 L 211.145 441.195 L 210.525 443.295 Z " fill="rgb(122,130,136)"/></g><g><path d=" M 674.519 211.707 L 675.406 207.879 L 679.064 206.44 L 675.699 204.412 L 675.46 200.489 L 672.491 203.065 L 668.686 202.077 L 670.219 205.697 L 668.103 209.012 L 672.021 208.674 L 674.519 211.707 Z " fill="rgb(122,130,136)"/></g><path d=" M 410.045 62.223 C 411.496 62.815 412.19 64.469 411.598 65.919 C 411.006 67.368 409.352 68.064 407.901 67.471 C 406.451 66.879 405.757 65.224 406.349 63.775 C 406.941 62.325 408.595 61.63 410.045 62.223 Z " fill="rgb(145,157,156)"/><g><path d=" M 113.031 403.436 L 111.528 407.246 L 107.537 408.165 L 110.696 410.773 L 110.338 414.852 L 113.792 412.655 L 117.56 414.255 L 116.539 410.291 L 119.227 407.201 L 115.14 406.948 L 113.031 403.436 Z  M 110.328 408.825 L 112.462 408.332 L 113.267 406.294 L 114.394 408.174 L 116.58 408.308 L 115.144 409.96 L 115.69 412.082 L 113.674 411.227 L 111.826 412.401 L 112.017 410.219 L 110.328 408.825 Z " fill="rgb(122,130,136)"/></g><g><path d=" M 45.208 331.684 C 45.599 333.823 44.184 335.869 42.045 336.259 C 39.91 336.649 37.862 335.234 37.471 333.095 C 37.081 330.957 38.499 328.911 40.634 328.521 C 42.772 328.131 44.819 329.546 45.208 331.684 Z " fill="rgb(122,130,136)"/></g><g><path d=" M 293.668 135.779 L 293.389 142.833 L 299.042 147.063 L 292.247 148.977 L 289.973 155.66 L 286.052 149.79 L 278.995 149.692 L 283.365 144.148 L 281.278 137.405 L 287.902 139.85 L 293.668 135.779 Z " fill="rgb(146,158,157)"/></g><g><path d=" M 675.553 472.719 C 675.635 470.546 677.459 468.855 679.631 468.936 C 681.801 469.018 683.494 470.842 683.413 473.015 C 683.331 475.187 681.505 476.878 679.335 476.797 C 677.163 476.715 675.472 474.891 675.553 472.719 Z " fill="rgb(122,130,136)"/></g><g><path d=" M 832.165 410.631 L 826.469 406.461 L 819.803 408.788 L 822.01 402.082 L 817.736 396.465 L 824.795 396.489 L 828.817 390.689 L 830.976 397.41 L 837.735 399.444 L 832.008 403.574 L 832.165 410.631 Z " fill="rgb(146,158,157)"/></g><g><path d=" M 463.602 561.545 L 463.378 565.634 L 459.881 567.766 L 463.702 569.244 L 464.648 573.227 L 467.233 570.053 L 471.313 570.382 L 469.094 566.943 L 470.67 563.163 L 466.712 564.212 L 463.602 561.545 Z  M 462.738 567.511 L 464.608 566.37 L 464.728 564.182 L 466.391 565.611 L 468.508 565.049 L 467.666 567.069 L 468.854 568.911 L 466.67 568.735 L 465.287 570.433 L 464.781 568.302 L 462.738 567.511 Z " fill="rgb(122,130,136)"/></g><g><path d=" M 803.783 591.622 L 806.614 588.897 L 810.465 589.685 L 808.749 586.149 L 810.688 582.731 L 806.795 583.272 L 804.143 580.369 L 803.454 584.24 L 799.874 585.865 L 803.342 587.717 L 803.783 591.622 Z " fill="rgb(122,130,136)"/></g><g><path d=" M 804.256 463.044 L 800.637 456.161 L 804.259 449.279 L 796.591 450.594 L 791.166 445.024 L 790.048 452.718 L 783.077 456.157 L 790.046 459.599 L 791.162 467.295 L 796.591 461.728 L 804.256 463.044 Z  M 799.851 452.478 L 797.916 456.16 L 799.851 459.844 L 795.749 459.135 L 792.847 462.115 L 792.251 458.001 L 788.52 456.158 L 792.249 454.316 L 792.849 450.201 L 795.752 453.181 L 799.851 452.478 Z " fill="rgb(122,130,136)"/></g><path d=" M 516.428 584.561 C 515 583.915 514.369 582.236 515.015 580.809 C 515.661 579.383 517.34 578.75 518.768 579.397 C 520.195 580.044 520.826 581.723 520.18 583.149 C 519.533 584.576 517.855 585.208 516.428 584.561 Z " fill="rgb(145,157,156)"/><g><path d=" M 567.994 390.001 L 572.076 389.67 L 574.661 392.846 L 575.608 388.86 L 579.427 387.383 L 575.931 385.252 L 575.706 381.165 L 572.598 383.829 L 568.64 382.78 L 570.215 386.56 L 567.994 390.001 Z  M 574.022 390.05 L 572.638 388.352 L 570.454 388.529 L 571.645 386.688 L 570.801 384.667 L 572.917 385.228 L 574.581 383.801 L 574.702 385.988 L 576.571 387.129 L 574.529 387.919 L 574.022 390.05 Z " fill="rgb(122,130,136)"/></g><g><path d=" M 317.253 373.286 C 316.944 371.134 318.435 369.142 320.586 368.833 C 322.735 368.524 324.729 370.015 325.038 372.167 C 325.347 374.318 323.854 376.31 321.705 376.618 C 319.554 376.928 317.563 375.437 317.253 373.286 Z " fill="rgb(122,130,136)"/></g><g><path d=" M 634.052 521.646 L 633.75 514.593 L 627.768 510.842 L 634.383 508.376 L 636.099 501.529 L 640.491 507.056 L 647.532 506.574 L 643.633 512.458 L 646.267 519.007 L 639.464 517.114 L 634.052 521.646 Z " fill="rgb(146,158,157)"/></g><g><path d=" M 448.854 46.789 L 444.942 46.428 L 443.02 42.998 L 441.467 46.608 L 437.613 47.375 L 440.566 49.968 L 440.103 53.872 L 443.482 51.863 L 447.053 53.51 L 446.187 49.675 L 448.854 46.789 Z " fill="rgb(122,130,136)"/></g><path d=" M 568.198 251.878 C 568.524 247.974 571.946 245.08 575.848 245.406 C 579.745 245.731 582.643 249.153 582.318 253.057 C 581.992 256.958 578.566 259.852 574.669 259.527 C 570.767 259.201 567.872 255.779 568.198 251.878 Z " fill="rgb(145,157,156)"/><path d=" M 161.45 438.398 C 162.344 437.111 164.109 436.792 165.396 437.686 C 166.682 438.578 167.001 440.344 166.107 441.631 C 165.214 442.918 163.448 443.236 162.162 442.343 C 160.875 441.45 160.557 439.685 161.45 438.398 Z " fill="rgb(145,157,156)"/><g><path d=" M 572.717 449.759 C 572.898 447.592 574.797 445.986 576.963 446.167 C 579.127 446.347 580.735 448.247 580.555 450.414 C 580.374 452.579 578.472 454.186 576.309 454.005 C 574.143 453.824 572.536 451.925 572.717 449.759 Z " fill="rgb(122,130,136)"/></g><g><path d=" M 732.002 394.89 L 726.502 390.464 L 719.737 392.485 L 722.248 385.887 L 718.235 380.08 L 725.286 380.426 L 729.568 374.817 L 731.418 381.629 L 738.077 383.97 L 732.167 387.833 L 732.002 394.89 Z " fill="rgb(146,158,157)"/></g><g><path d=" M 376.078 204.959 L 371.394 201.19 L 365.632 202.91 L 367.77 197.291 L 364.353 192.345 L 370.358 192.64 L 374.005 187.863 L 375.581 193.665 L 381.252 195.658 L 376.219 198.949 L 376.078 204.959 Z " fill="rgb(146,158,157)"/></g><g><path d=" M 356.929 528.81 L 356.518 532.884 L 352.928 534.854 L 356.677 536.505 L 357.441 540.528 L 360.168 537.474 L 364.228 537.99 L 362.169 534.453 L 363.915 530.749 L 359.913 531.616 L 356.929 528.81 Z  M 355.793 534.73 L 357.713 533.676 L 357.934 531.495 L 359.529 532.999 L 361.67 532.534 L 360.736 534.514 L 361.839 536.408 L 359.666 536.132 L 358.206 537.765 L 357.798 535.613 L 355.793 534.73 Z " fill="rgb(122,130,136)"/></g><g><path d=" M 40.929 493.21 L 47.369 497.569 L 47.426 505.345 L 53.565 500.565 L 60.976 502.914 L 58.33 495.604 L 62.85 489.281 L 55.082 489.537 L 50.464 483.28 L 48.308 490.751 L 40.929 493.21 Z  M 49.801 500.443 L 49.768 496.284 L 46.323 493.951 L 50.274 492.639 L 51.424 488.642 L 53.893 491.987 L 58.052 491.85 L 55.634 495.234 L 57.048 499.145 L 53.083 497.889 L 49.801 500.443 Z " fill="rgb(122,130,136)"/></g><g><path d=" M 695.381 574.396 L 698.333 571.803 L 702.144 572.766 L 700.592 569.156 L 702.685 565.83 L 698.771 566.192 L 696.255 563.171 L 695.39 567.006 L 691.739 568.466 L 695.119 570.475 L 695.381 574.396 Z " fill="rgb(122,130,136)"/></g><path d=" M 682.865 239.846 C 682.759 241.41 681.408 242.589 679.844 242.483 C 678.283 242.376 677.102 241.025 677.209 239.461 C 677.315 237.898 678.668 236.72 680.229 236.826 C 681.793 236.932 682.972 238.284 682.865 239.846 Z " fill="rgb(145,157,156)"/><g><path d=" M 242.263 518.791 C 244.436 518.875 246.125 520.701 246.041 522.873 C 245.957 525.042 244.131 526.734 241.959 526.65 C 239.787 526.566 238.097 524.738 238.182 522.568 C 238.266 520.397 240.092 518.707 242.263 518.791 Z " fill="rgb(122,130,136)"/></g><g><path d=" M 215.522 570.016 L 222.514 570.992 L 227.283 565.786 L 228.515 572.737 L 234.939 575.662 L 228.71 578.983 L 227.913 585.996 L 222.83 581.098 L 215.913 582.507 L 219.002 576.158 L 215.522 570.016 Z " fill="rgb(146,158,157)"/></g><g><path d=" M 63.573 370.304 L 59.484 370.075 L 57.356 366.576 L 55.874 370.395 L 51.89 371.337 L 55.061 373.925 L 54.727 378.005 L 58.169 375.79 L 61.947 377.37 L 60.903 373.41 L 63.573 370.304 Z  M 57.608 369.433 L 58.747 371.304 L 60.935 371.427 L 59.504 373.088 L 60.064 375.206 L 58.044 374.361 L 56.201 375.547 L 56.38 373.364 L 54.684 371.979 L 56.815 371.475 L 57.608 369.433 Z " fill="rgb(122,130,136)"/></g><g><path d=" M 701.728 445.973 L 698.427 438.933 L 702.359 432.223 L 694.639 433.186 L 689.475 427.375 L 688.006 435.009 L 680.885 438.126 L 687.69 441.883 L 688.453 449.622 L 694.13 444.309 L 701.728 445.973 Z  M 697.809 435.218 L 695.708 438.808 L 697.474 442.576 L 693.408 441.68 L 690.373 444.525 L 689.965 440.388 L 686.322 438.376 L 690.132 436.707 L 690.919 432.623 L 693.682 435.732 L 697.809 435.218 Z " fill="rgb(122,130,136)"/></g><g><path d=" M 154.822 397.162 L 153.619 400.902 L 149.854 402.032 L 153.039 404.333 L 152.951 408.262 L 156.124 405.942 L 159.834 407.243 L 158.607 403.508 L 160.991 400.381 L 157.059 400.392 L 154.822 397.162 Z " fill="rgb(122,130,136)"/></g><path d=" M 405.94 568.135 C 404.543 567.424 403.989 565.718 404.7 564.322 C 405.41 562.928 407.116 562.372 408.513 563.083 C 409.909 563.794 410.462 565.501 409.752 566.896 C 409.041 568.292 407.336 568.846 405.94 568.135 Z " fill="rgb(145,157,156)"/><g><path d=" M 241.549 353.703 L 243.364 350.032 L 247.417 349.447 L 244.486 346.586 L 245.182 342.551 L 241.557 344.453 L 237.936 342.545 L 238.623 346.58 L 235.688 349.436 L 239.74 350.028 L 241.549 353.703 Z  M 244.69 348.558 L 242.523 348.872 L 241.551 350.836 L 240.585 348.868 L 238.417 348.553 L 239.986 347.026 L 239.618 344.866 L 241.556 345.886 L 243.496 344.869 L 243.123 347.028 L 244.69 348.558 Z " fill="rgb(122,130,136)"/></g><g><path d=" M 241.569 447.298 C 241.359 445.134 242.939 443.212 245.102 443.002 C 247.263 442.791 249.186 444.371 249.397 446.535 C 249.608 448.698 248.025 450.62 245.865 450.83 C 243.701 451.041 241.78 449.46 241.569 447.298 Z " fill="rgb(122,130,136)"/></g><g><path d=" M 529.024 496.739 L 529.044 489.68 L 523.24 485.659 L 529.961 483.498 L 531.988 476.736 L 536.122 482.459 L 543.178 482.298 L 539.014 487.998 L 541.347 494.66 L 534.638 492.459 L 529.024 496.739 Z " fill="rgb(146,158,157)"/></g><g><path d=" M 177.493 115.083 C 176.974 117.194 174.846 118.483 172.736 117.965 C 170.627 117.447 169.337 115.318 169.855 113.207 C 170.374 111.096 172.504 109.808 174.612 110.326 C 176.723 110.845 178.011 112.972 177.493 115.083 Z " fill="rgb(122,130,136)"/></g><g><path d=" M 14.276 185.809 L 19.605 190.439 L 26.442 188.674 L 23.685 195.173 L 27.477 201.127 L 20.444 200.515 L 15.953 205.96 L 14.361 199.083 L 7.795 196.493 L 13.846 192.855 L 14.276 185.809 Z " fill="rgb(146,158,157)"/></g><g><path d=" M 394.119 66.088 L 394.683 62.032 L 398.345 60.198 L 394.66 58.407 L 394.049 54.359 L 391.209 57.308 L 387.17 56.64 L 389.096 60.252 L 387.211 63.887 L 391.243 63.172 L 394.119 66.088 Z  M 395.477 60.214 L 393.519 61.196 L 393.216 63.366 L 391.678 61.804 L 389.522 62.188 L 390.53 60.245 L 389.499 58.311 L 391.66 58.668 L 393.18 57.091 L 393.507 59.257 L 395.477 60.214 Z " fill="rgb(122,130,136)"/></g><g><path d=" M 57.621 7.807 L 54.573 10.287 L 50.801 9.182 L 52.217 12.848 L 50 16.093 L 53.925 15.878 L 56.326 18.991 L 57.334 15.191 L 61.038 13.869 L 57.735 11.735 L 57.621 7.807 Z " fill="rgb(122,130,136)"/></g><g><path d=" M 46.45 135.9 L 49.483 143.06 L 45.302 149.617 L 53.053 148.945 L 57.995 154.946 L 59.749 147.373 L 66.982 144.526 L 60.324 140.516 L 59.852 132.753 L 53.979 137.849 L 46.45 135.9 Z  M 49.961 146.796 L 52.195 143.287 L 50.573 139.455 L 54.602 140.503 L 57.742 137.775 L 57.994 141.924 L 61.559 144.072 L 57.689 145.596 L 56.749 149.647 L 54.104 146.437 L 49.961 146.796 Z " fill="rgb(122,130,136)"/></g><path d=" M 346.622 24.947 C 347.991 25.711 348.481 27.436 347.718 28.804 C 346.955 30.171 345.23 30.662 343.861 29.899 C 342.493 29.136 342.003 27.409 342.766 26.043 C 343.529 24.674 345.254 24.184 346.622 24.947 Z " fill="rgb(145,157,156)"/><g><path d=" M 32.026 460.284 L 30.075 463.884 L 26.003 464.315 L 28.824 467.286 L 27.976 471.291 L 31.671 469.527 L 35.218 471.569 L 34.682 467.511 L 37.723 464.768 L 33.697 464.024 L 32.026 460.284 Z  M 28.694 465.307 L 30.872 465.075 L 31.917 463.149 L 32.809 465.152 L 34.963 465.548 L 33.337 467.015 L 33.624 469.187 L 31.725 468.095 L 29.749 469.038 L 30.202 466.895 L 28.694 465.307 Z " fill="rgb(122,130,136)"/></g><path d=" M 386.732 463.414 C 390.18 465.272 391.466 469.565 389.608 473.012 C 387.752 476.455 383.458 477.744 380.01 475.886 C 376.563 474.028 375.279 469.731 377.135 466.289 C 378.993 462.842 383.286 461.556 386.732 463.414 Z " fill="rgb(145,157,156)"/><g><path d=" M 506.511 306.046 L 511.838 303.259 L 512.563 297.289 L 516.86 301.495 L 522.76 300.338 L 520.089 305.725 L 523.012 310.978 L 517.063 310.103 L 512.97 314.506 L 511.965 308.577 L 506.511 306.046 Z " fill="rgb(146,158,157)"/></g><g><path d=" M 416.684 367.922 L 420.777 367.81 L 423.189 371.12 L 424.348 367.191 L 428.241 365.921 L 424.864 363.605 L 424.858 359.512 L 421.613 362.006 L 417.716 360.746 L 419.086 364.605 L 416.684 367.922 Z  M 422.701 368.294 L 421.41 366.524 L 419.219 366.584 L 420.507 364.809 L 419.773 362.746 L 421.856 363.419 L 423.593 362.084 L 423.597 364.274 L 425.403 365.514 L 423.321 366.193 L 422.701 368.294 Z " fill="rgb(122,130,136)"/></g><g><path d=" M 325.207 328.435 L 323.704 332.244 L 319.713 333.164 L 322.872 335.772 L 322.514 339.851 L 325.968 337.653 L 329.736 339.253 L 328.715 335.29 L 331.403 332.2 L 327.316 331.946 L 325.207 328.435 Z  M 322.504 333.824 L 324.638 333.331 L 325.443 331.292 L 326.57 333.173 L 328.756 333.307 L 327.32 334.959 L 327.866 337.081 L 325.85 336.225 L 324.002 337.4 L 324.193 335.218 L 322.504 333.824 Z " fill="rgb(122,130,136)"/></g><g><path d=" M 306.609 229.554 C 306.74 231.725 305.091 233.587 302.921 233.718 C 300.754 233.849 298.89 232.2 298.759 230.03 C 298.627 227.86 300.279 225.998 302.446 225.867 C 304.616 225.736 306.478 227.385 306.609 229.554 Z " fill="rgb(122,130,136)"/></g><g><path d=" M 529.429 298.285 C 529.12 296.132 530.611 294.141 532.762 293.832 C 534.911 293.523 536.905 295.013 537.214 297.165 C 537.523 299.316 536.03 301.308 533.881 301.617 C 531.73 301.926 529.739 300.436 529.429 298.285 Z " fill="rgb(122,130,136)"/></g><path d=" M 676.394 183.877 C 677.545 184.941 677.615 186.733 676.551 187.883 C 675.489 189.032 673.696 189.103 672.545 188.039 C 671.395 186.976 671.326 185.183 672.389 184.034 C 673.452 182.883 675.244 182.813 676.394 183.877 Z " fill="rgb(145,157,156)"/><g><path d=" M 651.045 344.529 C 648.979 345.205 646.76 344.081 646.084 342.015 C 645.409 339.951 646.533 337.731 648.6 337.054 C 650.665 336.379 652.885 337.505 653.56 339.569 C 654.236 341.635 653.111 343.853 651.045 344.529 Z " fill="rgb(122,130,136)"/></g><g><path d=" M 718.152 183.044 L 714.615 181.333 L 714.019 177.447 L 711.298 180.282 L 707.42 179.648 L 709.275 183.112 L 707.472 186.605 L 711.341 185.91 L 714.106 188.706 L 714.642 184.81 L 718.152 183.044 Z " fill="rgb(122,130,136)"/></g><path d=" M 733.844 295.612 C 730.109 294.432 728.042 290.455 729.222 286.721 C 730.401 282.992 734.378 280.922 738.113 282.102 C 741.846 283.281 743.912 287.262 742.734 290.991 C 741.554 294.725 737.577 296.792 733.844 295.612 Z " fill="rgb(145,157,156)"/><path d=" M 747.44 181.12 C 748.942 181.569 749.793 183.147 749.344 184.648 C 748.895 186.148 747.317 187.001 745.815 186.551 C 744.314 186.102 743.463 184.523 743.912 183.023 C 744.361 181.522 745.939 180.671 747.44 181.12 Z " fill="rgb(145,157,156)"/><g><path d=" M 773.048 367.741 L 771.506 361.929 L 765.844 359.904 L 770.895 356.642 L 771.07 350.633 L 775.734 354.427 L 781.503 352.737 L 779.336 358.345 L 782.726 363.31 L 776.721 362.981 L 773.048 367.741 Z " fill="rgb(146,158,157)"/></g><g><path d=" M 770.541 343.674 C 768.373 343.501 766.76 341.607 766.934 339.44 C 767.107 337.276 769.001 335.661 771.169 335.835 C 773.335 336.008 774.948 337.904 774.775 340.068 C 774.601 342.235 772.707 343.848 770.541 343.674 Z " fill="rgb(122,130,136)"/></g><path d=" M 794.285 23.244 C 793.501 24.601 791.769 25.065 790.412 24.282 C 789.057 23.499 788.592 21.766 789.375 20.409 C 790.159 19.052 791.892 18.589 793.247 19.371 C 794.604 20.155 795.068 21.887 794.285 23.244 Z " fill="rgb(145,157,156)"/><g><path d=" M 804.322 63.786 L 805.209 59.958 L 808.867 58.519 L 805.502 56.491 L 805.263 52.568 L 802.294 55.143 L 798.489 54.156 L 800.022 57.776 L 797.906 61.091 L 801.824 60.753 L 804.322 63.786 Z " fill="rgb(122,130,136)"/></g><path d=" M 698.001 103.956 C 698.327 100.053 701.749 97.159 705.651 97.485 C 709.548 97.81 712.446 101.232 712.12 105.135 C 711.795 109.037 708.369 111.931 704.472 111.606 C 700.569 111.28 697.675 107.858 698.001 103.956 Z " fill="rgb(145,157,156)"/><path d=" M 812.668 91.925 C 812.562 93.489 811.21 94.668 809.647 94.562 C 808.086 94.455 806.905 93.104 807.012 91.54 C 807.118 89.977 808.471 88.798 810.032 88.905 C 811.595 89.011 812.774 90.362 812.668 91.925 Z " fill="rgb(145,157,156)"/><g><path d=" M 659.232 150.363 C 658.923 148.211 660.414 146.22 662.565 145.91 C 664.714 145.602 666.707 147.092 667.017 149.244 C 667.326 151.395 665.833 153.387 663.684 153.696 C 661.533 154.005 659.542 152.514 659.232 150.363 Z " fill="rgb(122,130,136)"/></g><g><path d=" M 253.105 418.209 L 259.545 422.567 L 259.602 430.344 L 265.741 425.564 L 273.152 427.912 L 270.506 420.603 L 275.026 414.28 L 267.258 414.536 L 262.64 408.279 L 260.484 415.749 L 253.105 418.209 Z  M 261.977 425.442 L 261.944 421.283 L 258.499 418.95 L 262.45 417.638 L 263.6 413.64 L 266.069 416.985 L 270.228 416.849 L 267.81 420.233 L 269.224 424.143 L 265.259 422.887 L 261.977 425.442 Z " fill="rgb(122,130,136)"/></g><g><path d=" M 454.439 443.79 C 456.612 443.874 458.301 445.7 458.217 447.872 C 458.133 450.041 456.307 451.733 454.135 451.649 C 451.963 451.565 450.273 449.736 450.358 447.567 C 450.442 445.395 452.268 443.706 454.439 443.79 Z " fill="rgb(122,130,136)"/></g><g><path d=" M 365.851 231.739 L 361.762 231.51 L 359.635 228.011 L 358.152 231.83 L 354.168 232.772 L 357.34 235.36 L 357.005 239.44 L 360.447 237.225 L 364.225 238.805 L 363.181 234.845 L 365.851 231.739 Z  M 359.886 230.868 L 361.025 232.739 L 363.213 232.862 L 361.782 234.523 L 362.342 236.641 L 360.322 235.796 L 358.48 236.982 L 358.658 234.799 L 356.962 233.414 L 359.093 232.91 L 359.886 230.868 Z " fill="rgb(122,130,136)"/></g><g><path d=" M 453.725 278.702 L 455.54 275.031 L 459.593 274.446 L 456.662 271.584 L 457.358 267.55 L 453.733 269.452 L 450.112 267.544 L 450.799 271.579 L 447.864 274.435 L 451.916 275.027 L 453.725 278.702 Z  M 456.866 273.557 L 454.699 273.87 L 453.727 275.835 L 452.761 273.867 L 450.593 273.551 L 452.162 272.025 L 451.794 269.864 L 453.732 270.885 L 455.672 269.868 L 455.299 272.026 L 456.866 273.557 Z " fill="rgb(122,130,136)"/></g><g><path d=" M 453.745 372.296 C 453.535 370.132 455.115 368.211 457.278 368 C 459.439 367.79 461.362 369.37 461.573 371.534 C 461.784 373.697 460.201 375.618 458.041 375.829 C 455.877 376.039 453.956 374.459 453.745 372.296 Z " fill="rgb(122,130,136)"/></g><g><path d=" M 244.202 385.282 L 242.251 388.883 L 238.179 389.314 L 241 392.284 L 240.152 396.29 L 243.847 394.525 L 247.394 396.568 L 246.858 392.51 L 249.899 389.767 L 245.873 389.022 L 244.202 385.282 Z  M 240.87 390.306 L 243.048 390.074 L 244.093 388.147 L 244.985 390.15 L 247.139 390.547 L 245.513 392.013 L 245.8 394.186 L 243.901 393.093 L 241.925 394.037 L 242.378 391.894 L 240.87 390.306 Z " fill="rgb(122,130,136)"/></g><g><path d=" M 152.076 256.337 L 156.642 260.248 L 162.454 258.704 L 160.145 264.255 L 163.411 269.303 L 157.417 268.825 L 153.626 273.489 L 152.228 267.642 L 146.62 265.476 L 151.752 262.341 L 152.076 256.337 Z " fill="rgb(146,158,157)"/></g><g><path d=" M 90.98 198.455 L 92.604 202.214 L 90.427 205.682 L 94.506 205.299 L 97.131 208.441 L 98.027 204.446 L 101.825 202.92 L 98.304 200.833 L 98.026 196.747 L 94.952 199.453 L 90.98 198.455 Z  M 92.87 204.179 L 94.033 202.323 L 93.165 200.311 L 95.29 200.848 L 96.933 199.399 L 97.082 201.584 L 98.967 202.701 L 96.935 203.518 L 96.455 205.655 L 95.05 203.974 L 92.87 204.179 Z " fill="rgb(122,130,136)"/></g><g><path d=" M 93.661 98.855 L 89.566 98.874 L 87.23 95.511 L 85.982 99.413 L 82.063 100.595 L 85.386 102.986 L 85.3 107.078 L 88.601 104.658 L 92.468 106.006 L 91.185 102.117 L 93.661 98.855 Z  M 87.655 98.347 L 88.905 100.146 L 91.097 100.136 L 89.769 101.881 L 90.457 103.96 L 88.39 103.24 L 86.622 104.536 L 86.667 102.346 L 84.89 101.066 L 86.987 100.433 L 87.655 98.347 Z " fill="rgb(122,130,136)"/></g><g><path d=" M 177.356 56.959 C 175.515 58.116 173.089 57.563 171.933 55.722 C 170.778 53.884 171.331 51.457 173.172 50.3 C 175.012 49.144 177.438 49.699 178.593 51.537 C 179.749 53.378 179.196 55.803 177.356 56.959 Z " fill="rgb(122,130,136)"/></g><g><path d=" M 96.482 59.782 L 94.976 52.885 L 88.44 50.214 L 94.535 46.651 L 95.053 39.611 L 100.326 44.305 L 107.18 42.624 L 104.347 49.089 L 108.064 55.089 L 101.038 54.39 L 96.482 59.782 Z " fill="rgb(146,158,157)"/></g><g><path d=" M 46.246 80.347 L 48.093 72.793 L 55.364 70.036 L 48.748 65.942 L 48.373 58.177 L 42.44 63.2 L 34.939 61.16 L 37.881 68.355 L 33.62 74.86 L 41.374 74.284 L 46.246 80.347 Z  M 49.943 69.513 L 46.055 70.991 L 45.065 75.032 L 42.461 71.784 L 38.313 72.095 L 40.591 68.618 L 39.017 64.765 L 43.03 65.856 L 46.205 63.17 L 46.406 67.325 L 49.943 69.513 Z " fill="rgb(122,130,136)"/></g><path d=" M 83.677 19.769 L 84.622 15.784 L 88.44 14.304 L 84.941 12.174 L 84.714 8.086 L 81.609 10.753 L 77.651 9.707 L 79.227 13.485 L 77.008 16.927 L 81.089 16.594 L 83.677 19.769 Z  M 85.583 14.05 L 83.541 14.842 L 83.035 16.974 L 81.652 15.274 L 79.469 15.453 L 80.655 13.613 L 79.812 11.59 L 81.929 12.15 L 83.591 10.723 L 83.713 12.91 L 85.583 14.05 Z " fill="rgb(122,130,136)"/><g><path d=" M 22.001 98.02 L 25.296 100.452 L 25.159 104.545 L 28.491 102.162 L 32.34 103.557 L 31.105 99.654 L 33.62 96.424 L 29.527 96.392 L 27.232 93 L 25.936 96.885 L 22.001 98.02 Z  M 26.514 102.017 L 26.586 99.828 L 24.823 98.526 L 26.93 97.921 L 27.622 95.842 L 28.848 97.655 L 31.04 97.673 L 29.695 99.402 L 30.355 101.49 L 28.295 100.743 L 26.514 102.017 Z " fill="rgb(122,130,136)"/></g><path d=" M 776.222 146.98 L 773.141 144.282 L 773.619 140.215 L 770.099 142.312 L 766.379 140.602 L 767.286 144.594 L 764.511 147.603 L 768.587 147.976 L 770.592 151.547 L 772.206 147.784 L 776.222 146.98 Z  M 772.058 142.621 L 771.804 144.797 L 773.452 146.241 L 771.302 146.669 L 770.44 148.683 L 769.368 146.774 L 767.186 146.574 L 768.67 144.963 L 768.186 142.827 L 770.176 143.742 L 772.058 142.621 Z " fill="rgb(122,130,136)"/><path d=" M 807.423 152.534 L 810.4 155.345 L 809.77 159.392 L 813.366 157.428 L 817.019 159.277 L 816.263 155.254 L 819.149 152.351 L 815.09 151.825 L 813.221 148.181 L 811.466 151.881 L 807.423 152.534 Z  M 811.42 157.046 L 811.756 154.881 L 810.163 153.376 L 812.328 153.029 L 813.265 151.05 L 814.264 152.997 L 816.438 153.279 L 814.894 154.833 L 815.297 156.985 L 813.343 155.996 L 811.42 157.046 Z " fill="rgb(122,130,136)"/><path d=" M 158.066 156.568 L 154.985 153.871 L 155.462 149.803 L 151.943 151.901 L 148.223 150.19 L 149.13 154.182 L 146.355 157.192 L 150.431 157.565 L 152.436 161.136 L 154.05 157.372 L 158.066 156.568 Z  M 153.902 152.21 L 153.648 154.385 L 155.296 155.829 L 153.146 156.257 L 152.284 158.271 L 151.212 156.362 L 149.03 156.162 L 150.514 154.552 L 150.03 152.416 L 152.02 153.331 L 153.902 152.21 Z " fill="rgb(122,130,136)"/><path d=" M 189.267 162.122 L 192.244 164.934 L 191.614 168.98 L 195.21 167.017 L 198.863 168.866 L 198.107 164.842 L 200.993 161.94 L 196.934 161.414 L 195.065 157.77 L 193.31 161.47 L 189.267 162.122 Z  M 193.264 166.634 L 193.6 164.47 L 192.007 162.965 L 194.172 162.618 L 195.109 160.638 L 196.108 162.586 L 198.282 162.868 L 196.738 164.421 L 197.141 166.574 L 195.187 165.585 L 193.264 166.634 Z " fill="rgb(122,130,136)"/><g><path d=" M 195.396 315.034 C 197.279 313.947 199.682 314.592 200.768 316.474 C 201.853 318.355 201.21 320.759 199.327 321.846 C 197.444 322.932 195.041 322.286 193.956 320.406 C 192.869 318.523 193.514 316.12 195.396 315.034 Z " fill="rgb(122,130,136)"/></g><path d=" M 79.188 156.797 C 80.715 157.149 81.666 158.669 81.314 160.196 C 80.963 161.721 79.443 162.674 77.915 162.322 C 76.389 161.97 75.438 160.448 75.789 158.923 C 76.141 157.397 77.661 156.445 79.188 156.797 Z " fill="rgb(145,157,156)"/><g><path d=" M 198.536 100.672 L 197.23 96.791 L 199.689 93.516 L 195.592 93.558 L 193.238 90.209 L 192.013 94.115 L 188.101 95.32 L 191.436 97.693 L 191.373 101.788 L 194.661 99.347 L 198.536 100.672 Z  M 197.129 94.811 L 195.816 96.563 L 196.514 98.64 L 194.44 97.928 L 192.682 99.235 L 192.716 97.046 L 190.93 95.776 L 193.024 95.13 L 193.68 93.041 L 194.939 94.833 L 197.129 94.811 Z " fill="rgb(122,130,136)"/></g><g><path d=" M 187.576 199.704 L 191.658 200.025 L 193.707 203.571 L 195.275 199.786 L 199.28 198.934 L 196.167 196.275 L 196.593 192.204 L 193.102 194.341 L 189.36 192.677 L 190.315 196.658 L 187.576 199.704 Z  M 193.52 200.709 L 192.423 198.813 L 190.239 198.64 L 191.707 197.012 L 191.194 194.882 L 193.195 195.772 L 195.064 194.628 L 194.836 196.807 L 196.501 198.23 L 194.358 198.686 L 193.52 200.709 Z " fill="rgb(122,130,136)"/></g><g><path d=" M 40.672 256.005 C 42.603 255.006 44.974 255.759 45.973 257.689 C 46.971 259.617 46.219 261.99 44.288 262.99 C 42.358 263.989 39.986 263.233 38.988 261.305 C 37.989 259.375 38.742 257.004 40.672 256.005 Z " fill="rgb(122,130,136)"/></g><g><path d=" M 242.111 267.989 L 238.016 268.009 L 235.68 264.645 L 234.432 268.548 L 230.512 269.73 L 233.836 272.121 L 233.75 276.213 L 237.051 273.793 L 240.918 275.14 L 239.635 271.252 L 242.111 267.989 Z  M 236.105 267.482 L 237.355 269.28 L 239.546 269.27 L 238.219 271.015 L 238.907 273.095 L 236.839 272.374 L 235.072 273.67 L 235.117 271.48 L 233.34 270.2 L 235.437 269.568 L 236.105 267.482 Z " fill="rgb(122,130,136)"/></g><g><path d=" M 90.24 264.913 L 88.586 272.512 L 81.387 275.453 L 88.105 279.377 L 88.678 287.13 L 94.482 281.958 L 102.031 283.807 L 98.908 276.689 L 103.002 270.077 L 95.265 270.85 L 90.24 264.913 Z  M 86.821 275.838 L 90.67 274.262 L 91.556 270.196 L 94.242 273.377 L 98.381 272.961 L 96.192 276.495 L 97.864 280.306 L 93.824 279.318 L 90.718 282.084 L 90.412 277.936 L 86.821 275.838 Z " fill="rgb(122,130,136)"/></g><g><path d=" M 24.033 533.298 L 29.882 537.251 L 36.456 534.675 L 34.503 541.458 L 38.985 546.912 L 31.93 547.153 L 28.129 553.099 L 25.719 546.464 L 18.888 544.686 L 24.456 540.344 L 24.033 533.298 Z " fill="rgb(146,158,157)"/></g><g><path d=" M 29.725 581.466 C 30.115 583.605 28.7 585.651 26.562 586.041 C 24.426 586.43 22.378 585.016 21.988 582.877 C 21.598 580.739 23.015 578.692 25.151 578.303 C 27.289 577.913 29.335 579.328 29.725 581.466 Z " fill="rgb(122,130,136)"/></g><g><path d=" M 78.178 578.038 L 74.089 577.809 L 71.962 574.31 L 70.479 578.129 L 66.495 579.071 L 69.667 581.659 L 69.332 585.739 L 72.774 583.524 L 76.552 585.104 L 75.508 581.144 L 78.178 578.038 Z  M 72.213 577.167 L 73.352 579.038 L 75.54 579.161 L 74.109 580.822 L 74.669 582.94 L 72.65 582.095 L 70.807 583.281 L 70.985 581.098 L 69.289 579.713 L 71.42 579.209 L 72.213 577.167 Z " fill="rgb(122,130,136)"/></g><g><path d=" M 106.299 530.168 L 110.866 534.078 L 116.678 532.534 L 114.369 538.086 L 117.634 543.134 L 111.641 542.655 L 107.85 547.32 L 106.452 541.472 L 100.844 539.307 L 105.975 536.171 L 106.299 530.168 Z " fill="rgb(146,158,157)"/></g><g><path d=" M 122.019 548.563 C 123.902 547.476 126.304 548.121 127.391 550.003 C 128.476 551.884 127.832 554.288 125.949 555.375 C 124.067 556.461 121.663 555.815 120.578 553.935 C 119.492 552.052 120.136 549.649 122.019 548.563 Z " fill="rgb(122,130,136)"/></g><g><path d=" M 25.189 505.787 C 27.12 504.787 29.49 505.541 30.49 507.471 C 31.488 509.399 30.735 511.772 28.804 512.771 C 26.874 513.77 24.502 513.015 23.504 511.087 C 22.505 509.157 23.259 506.786 25.189 505.787 Z " fill="rgb(122,130,136)"/></g><g><path d=" M 166.614 539.287 L 162.519 539.307 L 160.183 535.943 L 158.935 539.845 L 155.015 541.027 L 158.339 543.418 L 158.253 547.511 L 161.554 545.09 L 165.421 546.438 L 164.138 542.549 L 166.614 539.287 Z  M 160.608 538.78 L 161.858 540.578 L 164.049 540.568 L 162.722 542.313 L 163.41 544.393 L 161.342 543.672 L 159.575 544.968 L 159.62 542.778 L 157.843 541.498 L 159.94 540.866 L 160.608 538.78 Z " fill="rgb(122,130,136)"/></g><g><path d=" M 159.242 213.898 L 155.174 213.423 L 153.261 209.802 L 151.551 213.526 L 147.518 214.226 L 150.528 217.001 L 149.949 221.053 L 153.518 219.048 L 157.194 220.853 L 156.39 216.838 L 159.242 213.898 Z  M 153.34 212.669 L 154.364 214.605 L 156.541 214.86 L 155.013 216.432 L 155.445 218.579 L 153.479 217.615 L 151.568 218.688 L 151.878 216.519 L 150.268 215.035 L 152.426 214.66 L 153.34 212.669 Z " fill="rgb(122,130,136)"/></g><g><path d=" M 550.926 160.797 L 545.226 158.882 L 540.417 162.492 L 540.477 156.479 L 535.558 153.023 L 541.294 151.221 L 543.061 145.475 L 546.548 150.373 L 552.559 150.279 L 548.977 155.109 L 550.926 160.797 Z " fill="rgb(146,158,157)"/></g><g><path d=" M 657.763 182.781 L 654.849 179.905 L 655.568 175.873 L 651.929 177.757 L 648.318 175.827 L 648.985 179.867 L 646.035 182.705 L 650.082 183.321 L 651.87 187.005 L 653.706 183.345 L 657.763 182.781 Z  M 653.866 178.182 L 653.483 180.339 L 655.042 181.879 L 652.87 182.178 L 651.889 184.136 L 650.934 182.167 L 648.767 181.837 L 650.345 180.318 L 649.989 178.157 L 651.921 179.189 L 653.866 178.182 Z " fill="rgb(122,130,136)"/></g><g><path d=" M 529.459 149.632 C 528.12 151.345 525.651 151.648 523.938 150.309 C 522.228 148.973 521.923 146.502 523.262 144.789 C 524.6 143.077 527.071 142.775 528.782 144.112 C 530.494 145.45 530.797 147.919 529.459 149.632 Z " fill="rgb(122,130,136)"/></g><g><path d=" M 567.737 217.818 L 563.831 219.05 L 560.603 216.53 L 560.568 220.627 L 557.174 222.917 L 561.056 224.216 L 562.187 228.15 L 564.622 224.861 L 568.715 225.002 L 566.338 221.668 L 567.737 217.818 Z  M 561.849 219.113 L 563.576 220.46 L 565.666 219.802 L 564.915 221.862 L 566.188 223.644 L 564.001 223.568 L 562.696 225.33 L 562.091 223.225 L 560.014 222.529 L 561.83 221.303 L 561.849 219.113 Z " fill="rgb(122,130,136)"/></g><g><path d=" M 635.262 153.009 C 633.847 154.659 631.366 154.849 629.717 153.434 C 628.069 152.02 627.878 149.539 629.293 147.888 C 630.708 146.239 633.19 146.051 634.838 147.464 C 636.488 148.879 636.677 151.36 635.262 153.009 Z " fill="rgb(122,130,136)"/></g><path d=" M 546.397 37.1 C 545.351 33.325 547.559 29.425 551.333 28.379 C 555.102 27.335 559.006 29.542 560.051 33.317 C 561.097 37.09 558.885 40.991 555.116 42.035 C 551.342 43.08 547.442 40.873 546.397 37.1 Z " fill="rgb(145,157,156)"/><g><path d=" M 394.081 282.659 L 397.87 281.106 L 401.296 283.349 L 400.991 279.263 L 404.182 276.699 L 400.205 275.727 L 398.752 271.901 L 396.598 275.382 L 392.508 275.581 L 395.154 278.706 L 394.081 282.659 Z  M 399.84 280.878 L 398.007 279.679 L 395.979 280.51 L 396.556 278.394 L 395.139 276.724 L 397.325 276.617 L 398.479 274.754 L 399.257 276.801 L 401.384 277.322 L 399.677 278.694 L 399.84 280.878 Z " fill="rgb(122,130,136)"/></g><g><path d=" M 606.286 164.822 L 604.972 157.158 L 610.544 151.733 L 602.845 150.612 L 599.409 143.639 L 595.967 150.609 L 588.274 151.724 L 593.837 157.152 L 592.518 164.816 L 599.402 161.201 L 606.286 164.822 Z  M 605.363 153.413 L 602.384 156.316 L 603.086 160.417 L 599.404 158.475 L 595.723 160.411 L 596.428 156.315 L 593.45 153.408 L 597.566 152.81 L 599.409 149.082 L 601.247 152.813 L 605.363 153.413 Z " fill="rgb(122,130,136)"/></g><g><path d=" M 588.688 194.041 L 592.637 192.957 L 595.768 195.597 L 595.958 191.505 L 599.435 189.344 L 595.604 187.9 L 594.623 183.926 L 592.065 187.121 L 587.98 186.826 L 590.231 190.247 L 588.688 194.041 Z  M 594.62 192.969 L 592.945 191.558 L 590.832 192.137 L 591.66 190.107 L 590.454 188.278 L 592.638 188.436 L 594.008 186.725 L 594.533 188.851 L 596.582 189.625 L 594.722 190.781 L 594.62 192.969 Z " fill="rgb(122,130,136)"/></g><g><path d=" M 359.805 187.052 C 357.956 188.195 355.535 187.625 354.391 185.776 C 353.249 183.93 353.819 181.506 355.668 180.363 C 357.517 179.22 359.939 179.793 361.081 181.639 C 362.224 183.488 361.653 185.909 359.805 187.052 Z " fill="rgb(122,130,136)"/></g><g><path d=" M 365.981 580.286 L 369.85 580.972 L 371.479 584.549 L 373.328 581.082 L 377.232 580.638 L 374.504 577.808 L 375.291 573.956 L 371.756 575.677 L 368.335 573.738 L 368.878 577.632 L 365.981 580.286 Z " fill="rgb(122,130,136)"/></g><g><path d=" M 809.799 283.859 L 813.676 283.22 L 816.402 286.053 L 816.993 282.168 L 820.528 280.452 L 817.015 278.689 L 816.477 274.795 L 813.715 277.593 L 809.844 276.901 L 811.651 280.393 L 809.799 283.859 Z " fill="rgb(122,130,136)"/></g><path d=" M 785.501 222.076 C 787.179 220.693 789.655 220.931 791.038 222.609 C 792.419 224.284 792.181 226.762 790.504 228.145 C 788.827 229.527 786.349 229.287 784.968 227.611 C 783.586 225.934 783.824 223.458 785.501 222.076 Z " fill="rgb(122,130,136)"/><g><path d=" M 750.873 268.758 C 753.041 268.931 754.654 270.825 754.481 272.991 C 754.309 275.155 752.415 276.771 750.248 276.598 C 748.082 276.425 746.468 274.53 746.641 272.366 C 746.814 270.199 748.707 268.586 750.873 268.758 Z " fill="rgb(122,130,136)"/></g><path d=" M 760.017 221.053 L 758.744 224.945 L 754.816 226.102 L 758.126 228.516 L 758.012 232.609 L 761.328 230.209 L 765.185 231.581 L 763.929 227.685 L 766.427 224.44 L 762.332 224.432 L 760.017 221.053 Z  M 757.642 226.593 L 759.743 225.973 L 760.424 223.891 L 761.661 225.701 L 763.852 225.704 L 762.516 227.438 L 763.189 229.524 L 761.125 228.791 L 759.35 230.074 L 759.411 227.884 L 757.642 226.593 Z " fill="rgb(122,130,136)"/></g></svg>